<?xml version="1.0" standalone="no"?>
<!DOCTYPE svg PUBLIC "-//W3C//DTD SVG 20010904//EN" "http://www.w3.org/TR/2001/REC-SVG-20010904/DTD/svg10.dtd">
<svg version="1.0" xmlns="http://www.w3.org/2000/svg" width="16.000000pt" height="16.000000pt" viewBox="0 0 16.000000 16.000000" preserveAspectRatio="xMidYMid meet">
    <g transform="translate(0.000000,16.000000) scale(0.005161,-0.005161)" fill="#000000" stroke="none">
        <path d="M585 2332 c-96 -8 -158 -45 -188 -111 -18 -40 -20 -69 -22 -247 -1
        -227 -3 -234 -66 -234 l-39 0 0 -88 c0 -85 1 -89 26 -100 14 -7 22 -17 19 -22
        -3 -6 1 -7 10 -3 13 5 14 7 3 14 -10 7 -9 9 5 9 9 0 17 -5 17 -11 0 -5 5 -7
        10 -4 12 7 11 17 14 -226 3 -180 5 -200 25 -242 27 -56 111 -122 131 -104 9 9
        11 9 7 1 -7 -12 27 -26 38 -16 3 4 27 7 53 7 49 1 76 11 67 25 -3 5 -1 11 4
        14 10 7 9 -13 -1 -29 -4 -6 -3 -17 3 -25 7 -12 9 -11 10 5 0 11 2 28 4 38 2
        10 -3 21 -11 24 -8 3 -14 14 -14 25 0 10 5 16 10 13 6 -4 7 -12 4 -18 -4 -7
        -3 -9 1 -4 14 12 12 59 -2 64 -7 3 -10 9 -7 14 3 5 10 6 16 3 7 -4 8 -2 4 5
        -4 6 -12 9 -17 6 -5 -4 -9 3 -9 14 0 16 -7 21 -27 21 -16 0 -37 7 -48 15 -19
        15 -29 61 -15 70 4 3 6 -9 5 -26 -1 -16 0 -27 3 -24 8 8 9 275 1 280 -3 2 -5
        -18 -4 -45 1 -28 -1 -50 -5 -50 -3 0 -6 33 -6 74 1 41 5 72 9 69 5 -3 6 -12 2
        -22 -4 -11 -3 -13 5 -5 13 12 3 44 -14 44 -6 0 -4 5 4 10 10 6 11 10 3 10 -7
        0 -13 5 -13 11 0 5 4 7 10 4 6 -3 7 1 4 9 -3 9 -10 13 -15 10 -5 -3 -9 0 -9 7
        0 7 -9 22 -20 34 -20 21 -20 22 -1 39 14 13 21 14 27 5 5 -8 3 -10 -7 -4 -8 5
        -11 5 -7 0 4 -4 3 -14 -4 -22 -8 -11 -7 -12 6 -7 15 6 21 18 16 39 -9 41 -9
        54 -2 59 5 3 8 21 7 41 -2 19 0 37 4 39 4 3 6 -14 5 -37 -1 -23 -3 -42 -4 -42
        -2 0 -4 -10 -5 -22 -1 -13 1 -23 6 -23 4 0 8 8 8 18 6 141 6 234 1 237 -4 2
        -6 -18 -5 -45 1 -28 -1 -50 -5 -50 -5 0 -4 232 1 267 1 7 6 10 11 7 4 -3 3
        -14 -2 -24 -8 -16 -8 -18 5 -14 8 3 12 10 9 15 -3 5 0 9 7 9 8 0 8 4 1 13 -8
        10 -6 13 8 14 10 1 18 -4 16 -10 -1 -7 -1 -9 1 -6 2 3 15 4 30 1 17 -3 24 -1
        19 6 -4 6 -13 9 -21 5 -8 -3 -15 0 -15 5 0 6 9 9 20 7 11 -2 20 -1 21 3 5 48
        5 102 -1 92 -4 -6 -6 -27 -5 -46 1 -19 -2 -34 -5 -34 -4 0 -6 29 -6 63 1 47 4
        60 11 50 9 -12 11 -11 11 6 0 11 -4 17 -9 14 -5 -3 -11 4 -14 15 -5 21 -45 30
        -108 24z m21 -1017 c0 -14 -4 -25 -8 -25 -6 0 -5 25 1 48 3 10 7 -2 7 -23z"/>
        <path d="M2410 2241 c0 -81 2 -90 20 -96 11 -4 18 -10 15 -15 -3 -5 -1 -11 4
        -14 5 -4 13 -1 17 5 5 8 3 9 -6 4 -9 -5 -11 -4 -6 3 9 15 9 15 34 -6 20 -17
        21 -30 24 -218 3 -189 4 -201 26 -231 23 -32 23 -33 4 -54 -28 -29 -32 -60
        -32 -260 0 -208 -2 -212 -82 -212 -16 0 -18 -11 -18 -93 0 -90 1 -94 23 -95
        55 -4 104 -2 130 4 17 5 27 3 27 -3 0 -6 -4 -9 -8 -6 -4 2 -14 1 -21 -4 -9 -5
        -2 -7 18 -6 21 0 30 5 26 13 -2 7 -1 13 4 13 4 0 26 16 48 34 26 23 43 32 50
        25 6 -6 15 -4 24 8 13 16 12 17 -2 5 -22 -17 -33 8 -15 34 7 11 12 33 11 51 0
        17 3 29 8 26 5 -3 6 -12 3 -20 -3 -8 -1 -11 4 -8 12 8 9 37 -5 47 -6 5 -4 8 4
        8 11 0 10 4 -5 16 -16 13 -16 15 -1 10 9 -3 17 -1 17 4 0 6 -4 10 -9 10 -13 0
        -21 39 -9 47 7 3 8 1 4 -5 -4 -7 -2 -12 4 -12 6 0 8 -5 4 -12 -4 -7 -3 -8 4
        -4 14 9 -2 52 -18 48 -6 -1 -9 2 -5 8 3 6 11 8 16 5 16 -11 10 7 -8 22 -17 14
        -17 14 0 9 9 -3 17 -1 17 4 0 6 -4 10 -9 10 -13 0 -21 39 -9 47 7 3 8 1 4 -5
        -4 -7 -2 -12 4 -12 6 0 8 -5 4 -12 -4 -7 -3 -8 4 -4 14 9 -2 52 -18 48 -6 -1
        -9 2 -5 8 3 6 11 8 16 5 16 -11 10 7 -8 22 -17 14 -17 14 0 9 12 -4 17 -2 14
        6 -2 7 -11 12 -18 10 -11 -3 -11 -1 -2 9 6 6 9 17 6 25 -8 21 19 49 50 51 15
        1 27 -2 27 -8 0 -6 -5 -7 -12 -3 -6 4 -8 3 -5 -3 4 -5 19 -9 34 -8 26 1 27 2
        28 67 0 37 -3 64 -7 62 -4 -2 -5 -13 -3 -24 2 -11 0 -20 -4 -20 -5 0 -8 15 -7
        34 1 21 5 32 13 29 8 -3 10 3 6 17 -4 16 -8 18 -14 8 -6 -9 -9 -5 -9 14 0 23
        -4 26 -37 26 -26 0 -41 6 -54 23 -17 23 -16 45 2 34 17 -11 9 28 -8 42 -17 14
        -17 14 0 9 9 -3 17 -1 17 4 0 6 -4 10 -9 10 -13 0 -21 39 -9 47 7 3 8 1 4 -5
        -4 -7 -2 -12 4 -12 6 0 8 -5 4 -12 -4 -7 -3 -8 4 -4 14 9 -2 52 -18 48 -6 -1
        -9 2 -5 8 3 6 11 8 16 5 16 -11 10 7 -8 22 -17 14 -17 14 0 9 9 -3 17 -1 17 4
        0 6 -4 10 -9 10 -13 0 -21 39 -9 47 7 3 8 1 4 -5 -4 -7 -2 -12 4 -12 6 0 8 -5
        4 -12 -4 -7 -3 -8 4 -4 14 9 -2 52 -18 48 -6 -1 -9 2 -5 8 3 6 11 8 16 5 16
        -11 10 7 -8 22 -17 14 -17 14 0 9 11 -3 17 0 17 10 0 8 -4 13 -9 9 -5 -3 -13
        -1 -16 5 -4 6 -3 10 2 9 18 -3 28 2 17 9 -6 4 -14 21 -18 37 -7 29 -7 29 9 10
        16 -20 16 -20 5 3 -6 12 -15 22 -21 22 -6 0 -7 4 -4 10 10 17 -77 95 -121 108
        -23 6 -73 12 -113 12 l-71 0 0 -89z m433 -656 c-3 -9 -8 -14 -10 -11 -3 3 -2
        9 2 15 9 16 15 13 8 -4z m4 -38 c0 -8 -6 -14 -14 -14 -17 0 -17 14 0 20 6 3
        12 6 13 6 0 1 1 -5 1 -12z"/>
        <path d="M1816 2240 c-1 -3 -2 -58 -2 -122 1 -72 -3 -118 -9 -119 -5 0 -27 -1
        -47 -1 -36 0 -38 -2 -39 -34 -2 -131 -3 -128 20 -134 12 -3 23 -9 24 -15 3
        -16 26 -14 37 3 12 22 11 32 14 -218 3 -224 10 -264 57 -328 36 -50 114 -106
        134 -98 8 3 14 1 12 -5 -1 -6 8 -15 20 -19 18 -8 21 -6 16 8 -6 16 -5 16 14
        -1 11 -9 23 -14 27 -10 4 5 12 9 17 9 5 1 10 2 12 3 9 8 47 9 47 2 0 -6 -9 -8
        -20 -6 -11 2 -18 0 -15 -5 3 -5 -4 -7 -15 -5 -11 2 -18 0 -15 -5 4 -7 34 -7
        43 0 1 2 15 3 30 4 16 0 37 8 47 16 10 8 25 15 34 15 9 0 15 6 13 13 -2 10 4
        12 20 7 22 -6 22 -5 -2 10 -15 10 -18 14 -6 11 14 -5 17 -2 12 9 -3 9 -2 13 4
        10 6 -3 10 -1 10 4 0 6 5 11 11 11 8 0 7 -5 -1 -15 -7 -9 -10 -18 -6 -22 3 -3
        6 -1 6 6 0 7 4 10 9 6 16 -10 21 12 6 25 -8 7 -12 16 -9 21 3 5 1 9 -3 9 -9 0
        -37 59 -34 73 0 4 -3 7 -9 7 -5 0 -17 14 -25 30 l-16 31 -30 -26 c-17 -14 -38
        -26 -47 -26 -62 -6 -92 10 -95 49 -1 12 -5 22 -9 22 -13 0 -9 28 4 32 7 3 9
        12 5 22 -4 10 -12 14 -18 10 -8 -5 -9 -3 -3 7 5 8 8 23 6 34 l-2 20 9 -20 c5
        -11 6 -24 3 -29 -3 -5 0 -6 6 -2 7 4 8 17 2 35 -4 16 -5 33 -2 37 4 5 -2 2
        -12 -6 -18 -14 -19 -14 -7 8 7 12 16 20 22 17 15 -10 10 2 -8 16 -14 12 -16
        12 -8 0 6 -10 4 -12 -4 -7 -13 9 -6 21 12 21 7 1 10 7 9 15 -2 8 -4 29 -5 47
        -1 19 -5 29 -11 25 -6 -3 -5 1 2 10 10 13 10 17 -3 22 -12 4 -13 11 -7 23 5
        10 8 25 7 33 -2 9 5 17 16 17 11 1 19 -3 19 -8 0 -6 -4 -8 -9 -4 -5 3 -12 1
        -15 -4 -8 -12 24 -7 32 5 11 16 84 13 78 -3 -3 -7 -1 -13 4 -13 6 0 10 7 10
        15 0 8 5 15 11 15 6 0 8 -8 5 -17 -5 -15 -4 -15 9 1 13 18 20 15 16 -6 0 -5 4
        -8 9 -8 6 0 8 12 6 26 -4 19 -1 24 10 20 7 -3 14 -1 14 4 0 6 -4 10 -9 10 -13
        0 -21 39 -9 47 7 3 8 1 4 -5 -4 -7 -2 -12 4 -12 6 0 8 -5 4 -12 -4 -7 -3 -8 4
        -4 7 4 9 14 4 24 -4 9 -7 29 -6 44 0 15 -2 25 -7 23 -4 -3 -5 -15 -2 -28 3
        -12 3 -19 -1 -15 -4 3 -8 21 -9 40 l-2 33 -65 2 c-111 2 -128 6 -122 22 4 10
        1 12 -8 6 -9 -5 -11 -4 -6 4 4 6 11 9 16 6 5 -3 11 -1 14 4 4 5 1 13 -5 17 -8
        5 -9 3 -4 -7 5 -8 4 -10 0 -6 -12 10 -16 39 -5 32 5 -3 8 3 7 14 -1 15 -5 17
        -13 10 -9 -8 -11 -5 -7 10 3 12 9 19 13 16 5 -3 12 0 16 6 4 8 3 9 -4 5 -7 -4
        -12 -2 -12 4 0 6 -5 8 -12 4 -7 -5 -8 -3 -2 7 5 8 8 23 6 34 l-2 20 9 -20 c5
        -11 6 -24 3 -29 -3 -5 0 -6 5 -3 14 9 4 57 -13 57 -8 0 -11 6 -8 15 4 8 2 15
        -2 16 -35 4 -226 3 -228 -1z m-26 -418 c0 -5 -7 -9 -15 -9 -8 0 -12 4 -9 9 3
        4 9 8 15 8 5 0 9 -4 9 -8z m274 -168 c5 -14 4 -15 -9 -4 -17 14 -19 20 -6 20
        5 0 12 -7 15 -16z m192 -453 c-4 -5 -1 -12 4 -14 6 -3 5 -4 -2 -3 -7 2 -21 -4
        -31 -12 -23 -20 -44 -23 -44 -7 0 7 7 12 16 10 8 -1 24 6 35 17 21 20 31 23
        22 9z"/>
        <path d="M605 2016 c0 -30 3 -52 6 -50 7 4 5 91 -2 98 -3 3 -5 -19 -4 -48z"/>
        <path d="M1138 2004 c-2 -1 -19 -5 -40 -8 -73 -11 -228 -84 -228 -107 0 -15
        60 -99 97 -136 33 -34 56 -46 33 -18 -9 11 -10 19 -3 26 8 8 13 7 18 -2 6 -8
        4 -10 -5 -4 -8 5 -11 4 -6 -3 4 -6 13 -9 22 -5 11 4 12 8 3 19 -10 12 -9 13 5
        8 9 -3 16 -11 16 -18 0 -7 4 -6 9 2 4 8 12 13 17 12 5 -1 10 4 12 12 2 9 0 8
        -7 -2 -10 -13 -11 -13 -11 0 0 12 -2 12 -9 1 -6 -9 -11 -10 -15 -2 -4 6 -2 12
        3 12 6 1 17 2 24 3 6 1 21 -2 32 -7 18 -9 19 -9 6 7 -12 14 -12 16 4 10 11 -5
        16 -4 12 3 -3 5 0 10 8 10 11 0 12 -4 3 -14 -8 -10 -6 -13 10 -10 12 2 25 7
        29 12 5 4 2 5 -4 1 -7 -4 -13 -5 -13 -2 0 3 9 10 20 16 16 9 19 8 13 -6 -4
        -11 -2 -15 4 -11 6 4 13 4 16 0 2 -5 2 -3 1 4 -2 7 1 15 6 18 6 4 10 -1 10 -9
        0 -9 5 -16 11 -16 5 0 8 4 5 9 -3 4 5 6 19 4 33 -7 62 -42 70 -84 l7 -37 -154
        -4 c-149 -4 -155 -5 -220 -36 -73 -35 -108 -72 -128 -136 -17 -52 -8 -151 18
        -203 22 -43 105 -123 128 -123 8 0 14 -5 14 -11 0 -5 4 -8 9 -4 5 3 12 1 16
        -4 3 -6 13 -7 22 -4 11 4 14 3 9 -5 -5 -9 -1 -9 18 -2 17 6 27 6 32 -2 5 -7 2
        -8 -7 -3 -8 5 -10 4 -6 0 10 -12 39 -16 32 -5 -3 5 3 7 12 5 10 -1 23 0 28 4
        21 12 43 10 49 -5 4 -11 10 -12 25 -5 10 6 22 7 26 3 5 -4 4 -1 0 7 -6 11 -4
        13 9 8 10 -4 19 -1 22 8 4 8 9 13 13 11 3 -2 14 2 24 9 16 11 16 13 2 19 -11
        4 -14 2 -9 -6 4 -6 3 -8 -4 -4 -6 3 -18 -4 -26 -16 -9 -13 -16 -17 -16 -9 0
        12 -3 11 -17 -1 -29 -24 -40 -28 -40 -14 0 8 7 12 15 8 11 -4 13 -1 7 9 -4 8
        -4 11 0 6 5 -4 19 3 32 15 13 12 23 18 23 14 0 -5 7 -2 16 5 28 23 41 19 39
        -12 -2 -26 5 -34 28 -30 4 0 7 -5 7 -13 0 -8 5 -18 10 -21 6 -4 9 -1 8 6 -2 8
        9 13 29 15 19 1 30 -2 27 -8 -4 -6 3 -5 14 1 24 13 35 14 29 4 -3 -5 6 -9 19
        -9 14 -1 21 2 18 8 -4 6 4 5 16 -2 12 -6 25 -9 28 -5 10 9 9 554 -1 548 -4 -2
        -5 -8 -2 -13 3 -5 2 -11 -3 -14 -11 -7 -9 50 2 61 5 5 6 2 1 -6 -6 -10 -4 -12
        5 -6 10 6 7 12 -10 25 -15 11 -19 20 -11 24 8 5 7 15 -4 37 -9 16 -12 29 -8
        29 5 0 0 5 -9 11 -10 5 -18 16 -18 23 0 8 -16 28 -35 45 -73 64 -164 93 -281
        90 -41 -1 -75 -3 -76 -5z m447 -353 c3 -5 2 -12 -3 -15 -5 -3 -9 1 -9 9 0 17
        3 19 12 6z m0 -40 c3 -5 2 -12 -3 -15 -5 -3 -9 1 -9 9 0 17 3 19 12 6z m0 -40
        c3 -5 2 -12 -3 -15 -5 -3 -9 1 -9 9 0 17 3 19 12 6z m0 -40 c3 -5 2 -12 -3
        -15 -5 -3 -9 1 -9 9 0 17 3 19 12 6z m-410 -11 c-3 -5 -1 -11 4 -11 44 -5 58
        -3 75 10 18 15 19 15 13 -1 -8 -22 0 -23 20 -3 8 9 18 13 21 10 4 -3 0 -10 -8
        -15 -11 -7 -10 -9 7 -7 12 0 20 4 17 8 -2 4 0 10 5 14 18 11 4 -95 -16 -117
        -53 -59 -169 -74 -217 -29 -21 20 -24 27 -13 39 10 13 9 15 -4 10 -12 -5 -15
        0 -14 20 0 14 6 27 13 30 7 2 9 9 6 14 -4 6 -2 8 3 5 6 -4 16 0 23 7 6 8 20
        13 30 11 11 -2 22 0 25 6 4 5 8 9 11 9 3 0 2 -4 -1 -10z m59 2 c3 -5 -1 -9 -9
        -9 -8 0 -15 4 -15 9 0 4 4 8 9 8 6 0 12 -4 15 -8z m356 -43 c0 -5 -4 -9 -8 -9
        -5 0 -9 7 -9 15 0 8 4 12 9 9 4 -3 8 -9 8 -15z m-4 -54 c0 -28 -8 -24 -13 5
        -2 11 1 20 5 20 4 0 8 -11 8 -25z m1 -55 c1 -11 -2 -20 -5 -20 -4 0 -8 9 -9
        20 -1 11 2 20 5 20 4 0 8 -9 9 -20z m-1 -65 c0 -28 -8 -24 -13 5 -2 11 1 20 5
        20 4 0 8 -11 8 -25z m1 -55 c1 -11 -2 -20 -5 -20 -4 0 -8 9 -9 20 -1 11 2 20
        5 20 4 0 8 -9 9 -20z m-1 -65 c0 -28 -8 -24 -13 5 -2 11 1 20 5 20 4 0 8 -11
        8 -25z"/>
        <path d="M1099 1485 c-26 -23 -35 -45 -19 -45 6 0 10 7 10 15 0 8 3 14 8 13 9
        -3 52 24 52 33 0 13 -28 4 -51 -16z m31 11 c0 -2 -8 -10 -17 -17 -16 -13 -17
        -12 -4 4 13 16 21 21 21 13z"/>
        <path d="M2255 1820 c3 -5 8 -10 11 -10 2 0 4 5 4 10 0 6 -5 10 -11 10 -5 0
        -7 -4 -4 -10z"/>
        <path d="M2115 1810 c-3 -5 -1 -10 4 -10 6 0 11 5 11 10 0 6 -2 10 -4 10 -3 0
        -8 -4 -11 -10z"/>
        <path d="M2056 1775 c-3 -8 -1 -15 4 -15 6 0 10 7 10 15 0 8 -2 15 -4 15 -2 0
        -6 -7 -10 -15z"/>
        <path d="M2730 1786 c0 -2 8 -10 18 -17 15 -13 16 -12 3 4 -13 16 -21 21 -21
        13z"/>
        <path d="M2760 1530 c-8 -5 -15 -20 -16 -35 0 -14 2 -23 5 -19 3 3 6 9 6 12 1
        4 6 17 13 30 14 25 13 26 -8 12z"/>
        <path d="M1164 1148 c-3 -5 -11 -5 -17 -2 -7 4 -6 1 2 -7 10 -11 15 -11 18 -1
        3 6 9 10 13 7 5 -3 11 -2 14 3 3 5 -2 9 -10 9 -8 0 -17 -4 -20 -9z"/>
        <path d="M2733 1103 c4 -3 0 -17 -8 -29 -13 -21 -13 -23 0 -18 8 4 15 10 15
        14 0 5 3 15 6 24 4 10 1 16 -7 16 -7 0 -9 -3 -6 -7z"/>
        <path d="M2689 1023 c-2 -4 -17 -19 -33 -31 -27 -21 -48 -61 -25 -46 5 3 6 10
        3 16 -4 6 1 8 13 4 25 -8 66 33 54 53 -5 7 -10 9 -12 4z m-7 -33 c-12 -11 -25
        -20 -29 -20 -9 1 36 40 45 40 3 0 -4 -9 -16 -20z"/>
        <path d="M605 940 c-4 -7 72 -7 79 1 3 2 -13 5 -35 5 -22 0 -42 -2 -44 -6z"/>
    </g>
</svg>
